PathFileType	4	(X/Y/Z)	C:/Users/opensim2020/Desktop/walking_exp_matlab/subject06_walking12_straigt_03.trc																																																																																																																																														
DataRate	CameraRate	NumFrames	NumMarkers	Units	OrigDataRate	OrigDataStartFrame	OrigNumFrames																																																																																																																																										
100	100	4	48	mm	100	2210	184																																																																																																																																										
Frame#	Time	LFHD			RFHD			LBHD			RBHD			C7			T10			CLAV			STRN			RBAK			LSHO			LUPA			LELB			LFRM			LWRA			LWRB			LFIN			RSHO			RUPA			RELB			RFRM			RWRA			RWRB			RFIN			LASI			RASI			LPSI			RPSI			LTHI			LKNE			LTIB			LANK			LHEE			LTOE			RTHI			RKNE			RTIB			RANK			RHEE			RTOE			*39			*40			*41			*42			*43			*44			*45			*46			*47		
		X1	Y1	Z1	X2	Y2	Z2	X3	Y3	Z3	X4	Y4	Z4	X5	Y5	Z5	X6	Y6	Z6	X7	Y7	Z7	X8	Y8	Z8	X9	Y9	Z9	X10	Y10	Z10	X11	Y11	Z11	X12	Y12	Z12	X13	Y13	Z13	X14	Y14	Z14	X15	Y15	Z15	X16	Y16	Z16	X17	Y17	Z17	X18	Y18	Z18	X19	Y19	Z19	X20	Y20	Z20	X21	Y21	Z21	X22	Y22	Z22	X23	Y23	Z23	X24	Y24	Z24	X25	Y25	Z25	X26	Y26	Z26	X27	Y27	Z27	X28	Y28	Z28	X29	Y29	Z29	X30	Y30	Z30	X31	Y31	Z31	X32	Y32	Z32	X33	Y33	Z33	X34	Y34	Z34	X35	Y35	Z35	X36	Y36	Z36	X37	Y37	Z37	X38	Y38	Z38	X39	Y39	Z39	X40	Y40	Z40	X41	Y41	Z41	X42	Y42	Z42	X43	Y43	Z43	X44	Y44	Z44	X45	Y45	Z45	X46	Y46	Z46	X47	Y47	Z47	X48	Y48	Z48
																																																																																																																																																	
139	1.38	572.99866	1645.45117	-1077.46838	559.97089	1629.72668	-947.03204	440.22147	1593.79724	-1093.98828	428.3638	1583.00464	-965.58545	432.22467	1432.21057	-1040.03076	395.35242	1103.13281	-1035.83435	542.81659	1354.53748	-1034.25049	581.57623	1179.20325	-1046.177	356.22787	1260.1449	-969.79834	495.2308	1392.07153	-1197.13721	537.22211	1200.48413	-1280.84961	570.80121	1094.62988	-1302.37964	684.32123	999.13654	-1323.20801	805.27209	963.29852	-1274.49402	770.48059	916.21399	-1314.02869	857.854	895.02136	-1313.04761	488.67014	1383.41309	-874.37225	412.69348	1194.24463	-795.33313	399.96564	1071.25403	-786.83331	389.4855	950.55402	-773.6897	413.65344	801.56689	-811.20966	364.04379	814.76489	-767.95557	381.3454	731.72247	-770.17188	570.8125	939.46027	-1145.46948	574.11395	948.09399	-924.59277	410.72647	970.96063	-1112.55017	420.56628	970.45642	-943.2077	461.29007	631.79456	-1191.77136	426.65771	469.93369	-1167.65002	296.97833	243.466	-1153.45471	231.72195	84.19744	-1101.10608	188.56404	81.81127	-1055.4082	365.96729	32.40141	-1101.95813	580.89655	620.11017	-858.36768	625.25336	503.68759	-887.09192	667.76813	246.50502	-888.72144	732.77026	69.46125	-928.24829	709.48651	39.45001	-979.61957	892.07904	69.75358	-915.20343	468.05399	1683.79407	-1027.63843	NaN	NaN	NaN	NaN	NaN	NaN	NaN	NaN	NaN	NaN	NaN	NaN	NaN	NaN	NaN	NaN	NaN	NaN	NaN	NaN	NaN	NaN	NaN	NaN
140	1.39	582.49152	1644.54077	-1076.67371	569.62091	1629.0155	-946.24554	449.75204	1592.83508	-1092.98071	438.03653	1582.25757	-964.58069	441.83344	1431.18408	-1038.96716	406.14771	1102.0116	-1034.75586	552.73267	1353.76587	-1033.2439	592.0697	1178.52112	-1045.27075	366.51816	1258.81238	-968.95648	504.95154	1391.20386	-1196.17688	546.47827	1199.42566	-1279.75671	579.83051	1093.49121	-1301.04761	693.69092	998.47296	-1321.85352	814.80347	963.41107	-1273.07922	780.28204	916.08862	-1312.52112	867.83813	895.52582	-1311.6228	498.5697	1382.427	-873.36383	423.09912	1193.01685	-794.32001	410.96646	1070.00696	-785.65021	400.6315	949.28552	-772.34424	425.23691	800.34576	-809.68976	375.72104	813.37543	-766.64349	393.24976	730.45624	-768.59113	581.41223	938.54456	-1144.57312	585.39459	947.37244	-923.20569	421.30188	969.81628	-1111.28809	431.84607	969.29999	-942.07629	470.85947	630.81494	-1190.87964	436.22125	468.92023	-1167.19641	302.11084	244.82829	-1153.52856	233.1837	87.02602	-1102.01172	189.87564	85.53189	-1056.56372	366.24591	32.36033	-1102.19922	593.37177	620.21375	-858.53156	637.61639	504.19974	-887.1001	675.67804	244.60547	-889.59741	735.94586	66.33657	-930.57153	711.8266	37.57502	-981.44867	894.5415	63.84568	-916.63568	477.6572	1682.90271	-1026.7605	NaN	NaN	NaN	NaN	NaN	NaN	NaN	NaN	NaN	NaN	NaN	NaN	NaN	NaN	NaN	NaN	NaN	NaN	NaN	NaN	NaN	NaN	NaN	NaN
141	1.4	592.10266	1643.65173	-1075.99329	579.44098	1628.39685	-945.50726	459.31546	1592.02856	-1091.92224	447.80728	1581.62085	-963.46631	451.51096	1430.18018	-1037.74158	417.07956	1100.92029	-1033.42957	562.71039	1353.08276	-1032.2085	602.66437	1178.02832	-1044.29834	376.91638	1257.57996	-967.95618	514.53778	1390.33069	-1194.99097	555.76666	1198.47791	-1278.63257	588.77234	1092.45007	-1299.82007	702.89856	997.74188	-1320.36072	823.95239	963.09265	-1271.64392	789.57458	915.54993	-1310.98267	877.12103	895.38098	-1310.23291	508.51743	1381.57886	-872.21869	433.62076	1191.75977	-793.18542	422.12933	1068.85583	-784.41449	412.21988	948.15558	-771.0097	437.19101	799.22021	-808.12708	387.66916	812.1413	-765.08093	405.51462	729.32593	-766.8327	592.00549	937.79248	-1143.78052	597.20264	946.82837	-922.0257	432.09222	968.80731	-1109.85437	443.42047	968.45624	-940.63739	480.53394	629.87415	-1190.05286	446.22543	467.84219	-1166.76721	307.733	246.44836	-1153.53357	234.924	90.17223	-1102.80164	191.49669	89.72055	-1057.57129	366.53238	32.25512	-1102.37952	605.85114	620.21802	-858.70612	650.01788	504.55988	-887.24597	682.97656	242.73987	-890.53625	737.88	63.83328	-932.07855	713.02527	36.36466	-983.61298	896.3725	57.37849	-918.42401	487.37759	1682.18652	-1025.94788	NaN	NaN	NaN	NaN	NaN	NaN	NaN	NaN	NaN	NaN	NaN	NaN	NaN	NaN	NaN	NaN	NaN	NaN	NaN	NaN	NaN	NaN	NaN	NaN
142	1.41	601.78058	1642.95105	-1075.37805	589.4812	1628.06812	-944.73621	468.82315	1591.28931	-1090.78296	457.69733	1581.28174	-962.26801	460.92819	1429.30383	-1036.31287	428.33548	1099.91028	-1032.00537	572.66345	1352.60229	-1031.02209	613.3974	1177.75305	-1043.24866	387.30716	1256.27551	-966.71747	524.09009	1389.61328	-1193.69409	564.80426	1197.5509	-1277.15466	597.52203	1091.51221	-1298.46045	711.76794	996.72882	-1319.3103	832.69604	962.21222	-1270.15613	798.30487	914.54675	-1309.34888	885.79834	894.57214	-1308.83118	518.50256	1380.86462	-870.94696	444.54901	1190.82813	-791.86237	433.54822	1067.78162	-783.09534	424.05859	947.07275	-769.56799	449.66852	798.27075	-806.43768	400.14227	810.9978	-763.49939	418.22079	728.26892	-764.97101	601.97437	937.23413	-1142.99121	609.36005	946.58374	-921.06421	442.9025	968.07141	-1108.25464	455.12897	968.10657	-938.72626	490.61255	628.98895	-1189.0918	456.88306	466.70389	-1166.01648	313.30588	248.46149	-1153.19446	236.99847	93.82231	-1103.59644	193.64746	94.5112	-1058.53674	366.92926	32.1627	-1102.52954	618.31183	620.28064	-858.93048	662.13049	504.7645	-888.17291	690.17456	241.44518	-891.80524	741.992	63.39464	-933.22076	716.63226	38.78008	-984.3324	900.53845	49.19223	-918.78253	497.12952	1681.66333	-1025.13489	NaN	NaN	NaN	NaN	NaN	NaN	NaN	NaN	NaN	NaN	NaN	NaN	NaN	NaN	NaN	NaN	NaN	NaN	NaN	NaN	NaN	NaN	NaN	NaN
